<svg width="303" height="91" viewBox="0 0 303 91" fill="none" xmlns="http://www.w3.org/2000/svg">
<rect y="0.498413" width="54.5513" height="90.4212" rx="8" fill="#3CB6FF"/>
<path d="M55.5514 80.6254C46.181 80.6254 37.1943 76.9614 30.5685 70.4394C23.9426 63.9174 20.2202 55.0716 20.2202 45.8481C20.2202 36.6245 23.9426 27.7788 30.5685 21.2567C37.1943 14.7347 46.181 11.0707 55.5514 11.0707V45.8481V80.6254Z" fill="black"/>
<path d="M85.76 54.3722C85.76 54.8282 85.592 55.2242 85.256 55.5602C84.944 55.8722 84.56 56.0282 84.104 56.0282H83.132C82.676 56.0282 82.28 55.8722 81.944 55.5602C81.632 55.2242 81.476 54.8282 81.476 54.3722V33.3482C81.476 32.8682 81.632 32.4722 81.944 32.1602C82.28 31.8482 82.676 31.6922 83.132 31.6922H84.104C84.56 31.6922 84.944 31.8482 85.256 32.1602C85.592 32.4722 85.76 32.8682 85.76 33.3482V54.3722ZM101.714 54.3722C101.714 54.8282 101.558 55.2242 101.246 55.5602C100.934 55.8722 100.55 56.0282 100.094 56.0282H99.0862C98.6302 56.0282 98.2462 55.8722 97.9342 55.5602C97.6222 55.2242 97.4662 54.8282 97.4662 54.3722V42.1682C97.4662 42.0242 97.4062 41.9042 97.2862 41.8082C97.1902 41.7122 97.0822 41.6642 96.9622 41.6642H93.4702C93.3502 41.6642 93.2302 41.7122 93.1102 41.8082C93.0142 41.9042 92.9662 42.0242 92.9662 42.1682V54.3722C92.9662 54.8282 92.8102 55.2242 92.4982 55.5602C92.1862 55.8722 91.8022 56.0282 91.3462 56.0282H90.3382C89.8822 56.0282 89.4862 55.8722 89.1502 55.5602C88.8382 55.2242 88.6822 54.8282 88.6822 54.3722V41.4122C88.6822 40.6682 88.8622 39.9962 89.2222 39.3962C89.6062 38.7722 90.0982 38.2802 90.6982 37.9202C91.2982 37.5602 91.9702 37.3802 92.7142 37.3802H97.7182C98.4622 37.3802 99.1342 37.5602 99.7342 37.9202C100.334 38.2802 100.814 38.7722 101.174 39.3962C101.534 39.9962 101.714 40.6682 101.714 41.4122V54.3722ZM117.675 57.7562C117.675 58.4762 117.495 59.1362 117.135 59.7362C116.775 60.3602 116.295 60.8522 115.695 61.2122C115.095 61.5962 114.423 61.7882 113.679 61.7882H108.675C108.219 61.7882 107.823 61.6202 107.487 61.2842C107.175 60.9722 107.019 60.5882 107.019 60.1322V59.1242C107.019 58.6682 107.175 58.2842 107.487 57.9722C107.823 57.6602 108.219 57.5042 108.675 57.5042H112.923C113.043 57.5042 113.151 57.4562 113.247 57.3602C113.367 57.2642 113.427 57.1562 113.427 57.0362V56.4962C113.427 56.3762 113.367 56.2682 113.247 56.1722C113.151 56.0762 113.043 56.0282 112.923 56.0282H108.675C107.571 56.0282 106.623 55.6442 105.831 54.8762C105.039 54.0842 104.643 53.1242 104.643 51.9962V41.4122C104.643 40.6682 104.823 39.9962 105.183 39.3962C105.567 38.7722 106.059 38.2802 106.659 37.9202C107.259 37.5602 107.931 37.3802 108.675 37.3802H113.679C114.423 37.3802 115.095 37.5602 115.695 37.9202C116.295 38.2802 116.775 38.7722 117.135 39.3962C117.495 39.9962 117.675 40.6682 117.675 41.4122V57.7562ZM113.427 51.3122V42.1682C113.427 42.0242 113.367 41.9042 113.247 41.8082C113.151 41.7122 113.043 41.6642 112.923 41.6642H109.431C109.311 41.6642 109.191 41.7122 109.071 41.8082C108.975 41.9042 108.927 42.0242 108.927 42.1682V51.3122C108.927 51.4322 108.975 51.5402 109.071 51.6362C109.191 51.7322 109.311 51.7802 109.431 51.7802H112.923C113.043 51.7802 113.151 51.7322 113.247 51.6362C113.367 51.5402 113.427 51.4322 113.427 51.3122ZM131.296 40.0442C131.296 40.5002 131.14 40.8842 130.828 41.1962C130.516 41.5082 130.132 41.6642 129.676 41.6642H125.392C125.08 41.6642 124.924 41.8322 124.924 42.1682V54.3722C124.924 54.8282 124.756 55.2242 124.42 55.5602C124.108 55.8722 123.724 56.0282 123.268 56.0282H122.26C121.804 56.0282 121.42 55.8722 121.108 55.5602C120.796 55.2242 120.64 54.8282 120.64 54.3722V41.4122C120.64 40.6682 120.82 39.9962 121.18 39.3962C121.54 38.7722 122.02 38.2802 122.62 37.9202C123.22 37.5602 123.892 37.3802 124.636 37.3802H129.676C130.132 37.3802 130.516 37.5482 130.828 37.8842C131.14 38.1962 131.296 38.5922 131.296 39.0722V40.0442ZM147.242 45.3362C147.242 46.0562 147.062 46.7282 146.702 47.3522C146.342 47.9522 145.862 48.4442 145.262 48.8282C144.662 49.1882 143.99 49.3682 143.246 49.3682H138.998C138.878 49.3682 138.758 49.4162 138.638 49.5122C138.542 49.5842 138.494 49.6802 138.494 49.8002V51.3122C138.494 51.4322 138.542 51.5402 138.638 51.6362C138.758 51.7322 138.878 51.7802 138.998 51.7802H143.246C143.702 51.7802 144.086 51.9362 144.398 52.2482C144.734 52.5602 144.902 52.9562 144.902 53.4362V54.3722C144.902 54.8282 144.734 55.2242 144.398 55.5602C144.086 55.8722 143.702 56.0282 143.246 56.0282H138.242C137.138 56.0282 136.19 55.6442 135.398 54.8762C134.606 54.0842 134.21 53.1242 134.21 51.9962V41.4122C134.21 40.6682 134.39 39.9962 134.75 39.3962C135.134 38.7962 135.626 38.3162 136.226 37.9562C136.826 37.5722 137.498 37.3802 138.242 37.3802H143.246C143.99 37.3802 144.662 37.5722 145.262 37.9562C145.862 38.3162 146.342 38.7962 146.702 39.3962C147.062 39.9962 147.242 40.6682 147.242 41.4122V45.3362ZM142.994 44.6162V42.1682C142.994 42.0242 142.934 41.9042 142.814 41.8082C142.718 41.7122 142.61 41.6642 142.49 41.6642H138.998C138.878 41.6642 138.758 41.7122 138.638 41.8082C138.542 41.9042 138.494 42.0242 138.494 42.1682V44.6162C138.494 44.7122 138.542 44.8082 138.638 44.9042C138.758 45.0002 138.878 45.0482 138.998 45.0482H142.49C142.61 45.0482 142.718 45.0002 142.814 44.9042C142.934 44.8082 142.994 44.7122 142.994 44.6162ZM163.202 51.9962C163.202 53.1242 162.806 54.0842 162.014 54.8762C161.246 55.6442 160.31 56.0282 159.206 56.0282H154.202C153.098 56.0282 152.15 55.6442 151.358 54.8762C150.566 54.0842 150.17 53.1242 150.17 51.9962V50.5202C150.17 50.0642 150.326 49.6802 150.638 49.3682C150.974 49.0322 151.37 48.8642 151.826 48.8642H152.834C153.29 48.8642 153.674 49.0322 153.986 49.3682C154.298 49.6802 154.454 50.0642 154.454 50.5202V51.3122C154.454 51.6242 154.622 51.7802 154.958 51.7802H158.45C158.57 51.7802 158.678 51.7322 158.774 51.6362C158.894 51.5402 158.954 51.4322 158.954 51.3122V49.9802C158.954 49.7882 158.858 49.6562 158.666 49.5842L153.446 47.9282C152.486 47.5922 151.694 47.0162 151.07 46.2002C150.47 45.3842 150.17 44.4602 150.17 43.4282V41.4122C150.17 40.6682 150.35 39.9962 150.71 39.3962C151.094 38.7962 151.586 38.3162 152.186 37.9562C152.786 37.5722 153.458 37.3802 154.202 37.3802H159.206C159.95 37.3802 160.622 37.5722 161.222 37.9562C161.822 38.3162 162.302 38.7962 162.662 39.3962C163.022 39.9962 163.202 40.6682 163.202 41.4122V42.8522C163.202 43.3082 163.046 43.7042 162.734 44.0402C162.422 44.3522 162.038 44.5082 161.582 44.5082H160.574C160.118 44.5082 159.734 44.3522 159.422 44.0402C159.11 43.7042 158.954 43.3082 158.954 42.8522V42.1682C158.954 42.0242 158.894 41.9042 158.774 41.8082C158.678 41.7122 158.57 41.6642 158.45 41.6642H154.958C154.622 41.6642 154.454 41.8322 154.454 42.1682V43.4282C154.454 43.6682 154.55 43.8122 154.742 43.8602L159.962 45.5162C160.946 45.8282 161.726 46.3922 162.302 47.2082C162.902 48.0242 163.202 48.9482 163.202 49.9802V51.9962ZM179.163 51.9962C179.163 53.1242 178.767 54.0842 177.975 54.8762C177.207 55.6442 176.271 56.0282 175.167 56.0282H170.163C169.059 56.0282 168.111 55.6442 167.319 54.8762C166.527 54.0842 166.131 53.1242 166.131 51.9962V50.5202C166.131 50.0642 166.287 49.6802 166.599 49.3682C166.935 49.0322 167.331 48.8642 167.787 48.8642H168.795C169.251 48.8642 169.635 49.0322 169.947 49.3682C170.259 49.6802 170.415 50.0642 170.415 50.5202V51.3122C170.415 51.6242 170.583 51.7802 170.919 51.7802H174.411C174.531 51.7802 174.639 51.7322 174.735 51.6362C174.855 51.5402 174.915 51.4322 174.915 51.3122V49.9802C174.915 49.7882 174.819 49.6562 174.627 49.5842L169.407 47.9282C168.447 47.5922 167.655 47.0162 167.031 46.2002C166.431 45.3842 166.131 44.4602 166.131 43.4282V41.4122C166.131 40.6682 166.311 39.9962 166.671 39.3962C167.055 38.7962 167.547 38.3162 168.147 37.9562C168.747 37.5722 169.419 37.3802 170.163 37.3802H175.167C175.911 37.3802 176.583 37.5722 177.183 37.9562C177.783 38.3162 178.263 38.7962 178.623 39.3962C178.983 39.9962 179.163 40.6682 179.163 41.4122V42.8522C179.163 43.3082 179.007 43.7042 178.695 44.0402C178.383 44.3522 177.999 44.5082 177.543 44.5082H176.535C176.079 44.5082 175.695 44.3522 175.383 44.0402C175.071 43.7042 174.915 43.3082 174.915 42.8522V42.1682C174.915 42.0242 174.855 41.9042 174.735 41.8082C174.639 41.7122 174.531 41.6642 174.411 41.6642H170.919C170.583 41.6642 170.415 41.8322 170.415 42.1682V43.4282C170.415 43.6682 170.511 43.8122 170.703 43.8602L175.923 45.5162C176.907 45.8282 177.687 46.3922 178.263 47.2082C178.863 48.0242 179.163 48.9482 179.163 49.9802V51.9962ZM195.124 51.9962C195.124 53.1242 194.728 54.0842 193.936 54.8762C193.168 55.6442 192.232 56.0282 191.128 56.0282H186.124C185.02 56.0282 184.072 55.6442 183.28 54.8762C182.488 54.0842 182.092 53.1242 182.092 51.9962V41.4122C182.092 40.6682 182.272 39.9962 182.632 39.3962C183.016 38.7722 183.508 38.2802 184.108 37.9202C184.708 37.5602 185.38 37.3802 186.124 37.3802H191.128C191.872 37.3802 192.544 37.5602 193.144 37.9202C193.744 38.2802 194.224 38.7722 194.584 39.3962C194.944 39.9962 195.124 40.6682 195.124 41.4122V51.9962ZM190.876 51.3122V42.1682C190.876 42.0242 190.816 41.9042 190.696 41.8082C190.6 41.7122 190.492 41.6642 190.372 41.6642H186.88C186.76 41.6642 186.64 41.7122 186.52 41.8082C186.424 41.9042 186.376 42.0242 186.376 42.1682V51.3122C186.376 51.4322 186.424 51.5402 186.52 51.6362C186.64 51.7322 186.76 51.7802 186.88 51.7802H190.372C190.492 51.7802 190.6 51.7322 190.696 51.6362C190.816 51.5402 190.876 51.4322 190.876 51.3122ZM221.974 34.3202C221.974 34.7762 221.806 35.1722 221.47 35.5082C221.158 35.8202 220.786 35.9762 220.354 35.9762H211.066C210.778 35.9762 210.634 36.1322 210.634 36.4442V41.2322C210.634 41.5682 210.778 41.7362 211.066 41.7362H219.058C219.538 41.7362 219.934 41.8922 220.246 42.2042C220.558 42.5162 220.714 42.9002 220.714 43.3562V44.3642C220.714 44.8202 220.558 45.2162 220.246 45.5522C219.934 45.8642 219.538 46.0202 219.058 46.0202H211.066C210.778 46.0202 210.634 46.1642 210.634 46.4522V54.3722C210.634 54.8282 210.466 55.2242 210.13 55.5602C209.818 55.8722 209.434 56.0282 208.978 56.0282H207.97C207.538 56.0282 207.154 55.8722 206.818 55.5602C206.506 55.2242 206.35 54.8282 206.35 54.3722V33.3482C206.35 32.8682 206.506 32.4722 206.818 32.1602C207.154 31.8482 207.538 31.6922 207.97 31.6922H220.354C220.786 31.6922 221.158 31.8482 221.47 32.1602C221.806 32.4722 221.974 32.8682 221.974 33.3482V34.3202ZM231.394 54.3722C231.394 54.8282 231.226 55.2242 230.89 55.5602C230.578 55.8722 230.194 56.0282 229.738 56.0282H228.838C227.734 56.0282 226.786 55.6442 225.994 54.8762C225.202 54.0842 224.806 53.1242 224.806 51.9962V33.3482C224.806 32.8682 224.962 32.4722 225.274 32.1602C225.61 31.8482 226.006 31.6922 226.462 31.6922H227.47C227.926 31.6922 228.31 31.8482 228.622 32.1602C228.958 32.4722 229.126 32.8682 229.126 33.3482V51.3122C229.126 51.6242 229.27 51.7802 229.558 51.7802H229.738C230.194 51.7802 230.578 51.9362 230.89 52.2482C231.226 52.5602 231.394 52.9562 231.394 53.4362V54.3722ZM239.665 33.9962C239.665 34.7402 239.389 35.3882 238.837 35.9402C238.309 36.4682 237.685 36.7322 236.965 36.7322C236.221 36.7322 235.573 36.4682 235.021 35.9402C234.493 35.3882 234.229 34.7402 234.229 33.9962C234.229 33.2762 234.493 32.6522 235.021 32.1242C235.573 31.5722 236.221 31.2962 236.965 31.2962C237.685 31.2962 238.309 31.5722 238.837 32.1242C239.389 32.6522 239.665 33.2762 239.665 33.9962ZM239.089 54.3722C239.089 54.8282 238.921 55.2242 238.585 55.5602C238.273 55.8722 237.889 56.0282 237.433 56.0282H236.461C236.005 56.0282 235.609 55.8722 235.273 55.5602C234.961 55.2242 234.805 54.8282 234.805 54.3722V39.4322C234.805 38.9762 234.961 38.5922 235.273 38.2802C235.609 37.9442 236.005 37.7762 236.461 37.7762H237.433C237.889 37.7762 238.273 37.9442 238.585 38.2802C238.921 38.5922 239.089 38.9762 239.089 39.4322V54.3722ZM254.477 39.7922L251.237 46.3442C251.069 46.6082 251.069 46.8842 251.237 47.1722L254.441 53.6522C254.729 54.2042 254.705 54.7322 254.369 55.2362C254.057 55.7642 253.601 56.0282 253.001 56.0282H251.885C251.213 56.0282 250.721 55.7282 250.409 55.1282L248.825 51.9242C248.801 51.8522 248.729 51.8162 248.609 51.8162C248.513 51.8162 248.441 51.8522 248.393 51.9242L246.845 55.1282C246.533 55.7282 246.029 56.0282 245.333 56.0282H244.217C243.617 56.0282 243.161 55.7642 242.849 55.2362C242.537 54.7322 242.513 54.2042 242.777 53.6522L246.017 47.1722C246.137 46.8842 246.137 46.5962 246.017 46.3082L242.741 39.7922C242.477 39.2402 242.501 38.7002 242.813 38.1722C243.149 37.6442 243.617 37.3802 244.217 37.3802H245.333C245.669 37.3802 245.957 37.4762 246.197 37.6682C246.461 37.8362 246.665 38.0522 246.809 38.3162L248.393 41.5562C248.441 41.6282 248.513 41.6642 248.609 41.6642C248.729 41.6642 248.801 41.6282 248.825 41.5562L250.445 38.3162C250.589 38.0522 250.781 37.8362 251.021 37.6682C251.285 37.4762 251.573 37.3802 251.885 37.3802H253.001C253.577 37.3802 254.045 37.6442 254.405 38.1722C254.717 38.7002 254.741 39.2402 254.477 39.7922Z" fill="#3CB6FF"/>
<ellipse cx="54.5514" cy="45.8482" rx="14.1325" ry="13.911" fill="#3CB6FF"/>
<path d="M288.867 59.7589C287.011 59.7589 285.173 59.3991 283.459 58.7C281.744 58.0009 280.186 56.9762 278.874 55.6845C277.562 54.3927 276.521 52.8592 275.81 51.1715C275.1 49.4837 274.735 47.6748 274.735 45.848C274.735 44.0211 275.1 42.2122 275.81 40.5245C276.521 38.8367 277.562 37.3032 278.874 36.0114C280.186 34.7197 281.744 33.695 283.459 32.9959C285.173 32.2968 287.011 31.937 288.867 31.937L288.867 45.848L288.867 59.7589Z" fill="#3CB6FF"/>
</svg>
