<svg width="208" height="64" viewBox="0 0 208 64" fill="none" xmlns="http://www.w3.org/2000/svg">
<rect x="37.4126" y="6.52146" width="0.686469" height="48.7393" stroke="black" stroke-opacity="0.05" stroke-width="0.686469" stroke-dasharray="2 2"/>
<rect width="37.4478" height="63.0597" rx="8" fill="#3CB6FF"/>
<path d="M38.1341 55.8805C31.7016 55.8805 25.5326 53.3252 20.9841 48.7768C16.4357 44.2283 13.8804 38.0593 13.8804 31.6268C13.8804 25.1943 16.4357 19.0253 20.9841 14.4768C25.5326 9.92834 31.7016 7.37305 38.1341 7.37305V31.6268L38.1341 55.8805Z" fill="black"/>
<path d="M58.7575 39.4902C58.7575 39.7942 58.6455 40.0582 58.4215 40.2822C58.2135 40.4902 57.9575 40.5942 57.6535 40.5942H57.0055C56.7015 40.5942 56.4375 40.4902 56.2135 40.2822C56.0055 40.0582 55.9015 39.7942 55.9015 39.4902V25.4742C55.9015 25.1542 56.0055 24.8902 56.2135 24.6822C56.4375 24.4742 56.7015 24.3702 57.0055 24.3702H57.6535C57.9575 24.3702 58.2135 24.4742 58.4215 24.6822C58.6455 24.8902 58.7575 25.1542 58.7575 25.4742V39.4902ZM69.3936 39.4902C69.3936 39.7942 69.2896 40.0582 69.0816 40.2822C68.8736 40.4902 68.6176 40.5942 68.3136 40.5942H67.6416C67.3376 40.5942 67.0816 40.4902 66.8736 40.2822C66.6656 40.0582 66.5616 39.7942 66.5616 39.4902V31.3542C66.5616 31.2582 66.5216 31.1782 66.4416 31.1142C66.3776 31.0502 66.3056 31.0182 66.2256 31.0182H63.8976C63.8176 31.0182 63.7376 31.0502 63.6576 31.1142C63.5936 31.1782 63.5616 31.2582 63.5616 31.3542V39.4902C63.5616 39.7942 63.4576 40.0582 63.2496 40.2822C63.0416 40.4902 62.7856 40.5942 62.4816 40.5942H61.8096C61.5056 40.5942 61.2416 40.4902 61.0176 40.2822C60.8096 40.0582 60.7056 39.7942 60.7056 39.4902V30.8502C60.7056 30.3542 60.8256 29.9062 61.0656 29.5062C61.3216 29.0902 61.6496 28.7622 62.0496 28.5222C62.4496 28.2822 62.8976 28.1622 63.3936 28.1622H66.7296C67.2256 28.1622 67.6736 28.2822 68.0736 28.5222C68.4736 28.7622 68.7936 29.0902 69.0336 29.5062C69.2736 29.9062 69.3936 30.3542 69.3936 30.8502V39.4902ZM80.0342 41.7462C80.0342 42.2262 79.9142 42.6662 79.6742 43.0662C79.4342 43.4822 79.1142 43.8102 78.7142 44.0502C78.3142 44.3062 77.8662 44.4342 77.3702 44.4342H74.0342C73.7302 44.4342 73.4662 44.3222 73.2422 44.0982C73.0342 43.8902 72.9302 43.6342 72.9302 43.3302V42.6582C72.9302 42.3542 73.0342 42.0982 73.2422 41.8902C73.4662 41.6822 73.7302 41.5782 74.0342 41.5782H76.8662C76.9462 41.5782 77.0182 41.5462 77.0822 41.4822C77.1622 41.4182 77.2022 41.3462 77.2022 41.2662V40.9062C77.2022 40.8262 77.1622 40.7542 77.0822 40.6902C77.0182 40.6262 76.9462 40.5942 76.8662 40.5942H74.0342C73.2982 40.5942 72.6662 40.3382 72.1382 39.8262C71.6102 39.2982 71.3462 38.6582 71.3462 37.9062V30.8502C71.3462 30.3542 71.4662 29.9062 71.7062 29.5062C71.9622 29.0902 72.2902 28.7622 72.6902 28.5222C73.0902 28.2822 73.5382 28.1622 74.0342 28.1622H77.3702C77.8662 28.1622 78.3142 28.2822 78.7142 28.5222C79.1142 28.7622 79.4342 29.0902 79.6742 29.5062C79.9142 29.9062 80.0342 30.3542 80.0342 30.8502V41.7462ZM77.2022 37.4502V31.3542C77.2022 31.2582 77.1622 31.1782 77.0822 31.1142C77.0182 31.0502 76.9462 31.0182 76.8662 31.0182H74.5382C74.4582 31.0182 74.3782 31.0502 74.2982 31.1142C74.2342 31.1782 74.2022 31.2582 74.2022 31.3542V37.4502C74.2022 37.5302 74.2342 37.6022 74.2982 37.6662C74.3782 37.7302 74.4582 37.7622 74.5382 37.7622H76.8662C76.9462 37.7622 77.0182 37.7302 77.0822 37.6662C77.1622 37.6022 77.2022 37.5302 77.2022 37.4502ZM89.1149 29.9382C89.1149 30.2422 89.0109 30.4982 88.8029 30.7062C88.5949 30.9142 88.3389 31.0182 88.0349 31.0182H85.1789C84.9709 31.0182 84.8669 31.1302 84.8669 31.3542V39.4902C84.8669 39.7942 84.7549 40.0582 84.5309 40.2822C84.3229 40.4902 84.0669 40.5942 83.7629 40.5942H83.0909C82.7869 40.5942 82.5309 40.4902 82.3229 40.2822C82.1149 40.0582 82.0109 39.7942 82.0109 39.4902V30.8502C82.0109 30.3542 82.1309 29.9062 82.3709 29.5062C82.6109 29.0902 82.9309 28.7622 83.3309 28.5222C83.7309 28.2822 84.1789 28.1622 84.6749 28.1622H88.0349C88.3389 28.1622 88.5949 28.2742 88.8029 28.4982C89.0109 28.7062 89.1149 28.9702 89.1149 29.2902V29.9382ZM99.7452 33.4662C99.7452 33.9462 99.6252 34.3942 99.3852 34.8102C99.1452 35.2102 98.8252 35.5382 98.4252 35.7942C98.0252 36.0342 97.5772 36.1542 97.0812 36.1542H94.2492C94.1692 36.1542 94.0892 36.1862 94.0092 36.2502C93.9452 36.2982 93.9132 36.3622 93.9132 36.4422V37.4502C93.9132 37.5302 93.9452 37.6022 94.0092 37.6662C94.0892 37.7302 94.1692 37.7622 94.2492 37.7622H97.0812C97.3852 37.7622 97.6412 37.8662 97.8492 38.0742C98.0732 38.2822 98.1852 38.5462 98.1852 38.8662V39.4902C98.1852 39.7942 98.0732 40.0582 97.8492 40.2822C97.6412 40.4902 97.3852 40.5942 97.0812 40.5942H93.7452C93.0092 40.5942 92.3772 40.3382 91.8492 39.8262C91.3212 39.2982 91.0572 38.6582 91.0572 37.9062V30.8502C91.0572 30.3542 91.1772 29.9062 91.4172 29.5062C91.6732 29.1062 92.0012 28.7862 92.4012 28.5462C92.8012 28.2902 93.2492 28.1622 93.7452 28.1622H97.0812C97.5772 28.1622 98.0252 28.2902 98.4252 28.5462C98.8252 28.7862 99.1452 29.1062 99.3852 29.5062C99.6252 29.9062 99.7452 30.3542 99.7452 30.8502V33.4662ZM96.9132 32.9862V31.3542C96.9132 31.2582 96.8732 31.1782 96.7932 31.1142C96.7292 31.0502 96.6572 31.0182 96.5772 31.0182H94.2492C94.1692 31.0182 94.0892 31.0502 94.0092 31.1142C93.9452 31.1782 93.9132 31.2582 93.9132 31.3542V32.9862C93.9132 33.0502 93.9452 33.1142 94.0092 33.1782C94.0892 33.2422 94.1692 33.2742 94.2492 33.2742H96.5772C96.6572 33.2742 96.7292 33.2422 96.7932 33.1782C96.8732 33.1142 96.9132 33.0502 96.9132 32.9862ZM110.386 37.9062C110.386 38.6582 110.122 39.2982 109.594 39.8262C109.082 40.3382 108.458 40.5942 107.722 40.5942H104.386C103.65 40.5942 103.018 40.3382 102.49 39.8262C101.962 39.2982 101.698 38.6582 101.698 37.9062V36.9222C101.698 36.6182 101.802 36.3622 102.01 36.1542C102.234 35.9302 102.498 35.8182 102.802 35.8182H103.474C103.778 35.8182 104.034 35.9302 104.242 36.1542C104.45 36.3622 104.554 36.6182 104.554 36.9222V37.4502C104.554 37.6582 104.666 37.7622 104.89 37.7622H107.218C107.298 37.7622 107.37 37.7302 107.434 37.6662C107.514 37.6022 107.554 37.5302 107.554 37.4502V36.5622C107.554 36.4342 107.49 36.3462 107.362 36.2982L103.882 35.1942C103.242 34.9702 102.714 34.5862 102.298 34.0422C101.898 33.4982 101.698 32.8822 101.698 32.1942V30.8502C101.698 30.3542 101.818 29.9062 102.058 29.5062C102.314 29.1062 102.642 28.7862 103.042 28.5462C103.442 28.2902 103.89 28.1622 104.386 28.1622H107.722C108.218 28.1622 108.666 28.2902 109.066 28.5462C109.466 28.7862 109.786 29.1062 110.026 29.5062C110.266 29.9062 110.386 30.3542 110.386 30.8502V31.8102C110.386 32.1142 110.282 32.3782 110.074 32.6022C109.866 32.8102 109.61 32.9142 109.306 32.9142H108.634C108.33 32.9142 108.074 32.8102 107.866 32.6022C107.658 32.3782 107.554 32.1142 107.554 31.8102V31.3542C107.554 31.2582 107.514 31.1782 107.434 31.1142C107.37 31.0502 107.298 31.0182 107.218 31.0182H104.89C104.666 31.0182 104.554 31.1302 104.554 31.3542V32.1942C104.554 32.3542 104.618 32.4502 104.746 32.4822L108.226 33.5862C108.882 33.7942 109.402 34.1702 109.786 34.7142C110.186 35.2582 110.386 35.8742 110.386 36.5622V37.9062ZM121.026 37.9062C121.026 38.6582 120.762 39.2982 120.234 39.8262C119.722 40.3382 119.098 40.5942 118.362 40.5942H115.026C114.29 40.5942 113.658 40.3382 113.13 39.8262C112.602 39.2982 112.338 38.6582 112.338 37.9062V36.9222C112.338 36.6182 112.442 36.3622 112.65 36.1542C112.874 35.9302 113.138 35.8182 113.442 35.8182H114.114C114.418 35.8182 114.674 35.9302 114.882 36.1542C115.09 36.3622 115.194 36.6182 115.194 36.9222V37.4502C115.194 37.6582 115.306 37.7622 115.53 37.7622H117.858C117.938 37.7622 118.01 37.7302 118.074 37.6662C118.154 37.6022 118.194 37.5302 118.194 37.4502V36.5622C118.194 36.4342 118.13 36.3462 118.002 36.2982L114.522 35.1942C113.882 34.9702 113.354 34.5862 112.938 34.0422C112.538 33.4982 112.338 32.8822 112.338 32.1942V30.8502C112.338 30.3542 112.458 29.9062 112.698 29.5062C112.954 29.1062 113.282 28.7862 113.682 28.5462C114.082 28.2902 114.53 28.1622 115.026 28.1622H118.362C118.858 28.1622 119.306 28.2902 119.706 28.5462C120.106 28.7862 120.426 29.1062 120.666 29.5062C120.906 29.9062 121.026 30.3542 121.026 30.8502V31.8102C121.026 32.1142 120.922 32.3782 120.714 32.6022C120.506 32.8102 120.25 32.9142 119.946 32.9142H119.274C118.97 32.9142 118.714 32.8102 118.506 32.6022C118.298 32.3782 118.194 32.1142 118.194 31.8102V31.3542C118.194 31.2582 118.154 31.1782 118.074 31.1142C118.01 31.0502 117.938 31.0182 117.858 31.0182H115.53C115.306 31.0182 115.194 31.1302 115.194 31.3542V32.1942C115.194 32.3542 115.258 32.4502 115.386 32.4822L118.866 33.5862C119.522 33.7942 120.042 34.1702 120.426 34.7142C120.826 35.2582 121.026 35.8742 121.026 36.5622V37.9062ZM131.667 37.9062C131.667 38.6582 131.403 39.2982 130.875 39.8262C130.363 40.3382 129.739 40.5942 129.003 40.5942H125.667C124.931 40.5942 124.299 40.3382 123.771 39.8262C123.243 39.2982 122.979 38.6582 122.979 37.9062V30.8502C122.979 30.3542 123.099 29.9062 123.339 29.5062C123.595 29.0902 123.923 28.7622 124.323 28.5222C124.723 28.2822 125.171 28.1622 125.667 28.1622H129.003C129.499 28.1622 129.947 28.2822 130.347 28.5222C130.747 28.7622 131.067 29.0902 131.307 29.5062C131.547 29.9062 131.667 30.3542 131.667 30.8502V37.9062ZM128.835 37.4502V31.3542C128.835 31.2582 128.795 31.1782 128.715 31.1142C128.651 31.0502 128.579 31.0182 128.499 31.0182H126.171C126.091 31.0182 126.011 31.0502 125.931 31.1142C125.867 31.1782 125.835 31.2582 125.835 31.3542V37.4502C125.835 37.5302 125.867 37.6022 125.931 37.6662C126.011 37.7302 126.091 37.7622 126.171 37.7622H128.499C128.579 37.7622 128.651 37.7302 128.715 37.6662C128.795 37.6022 128.835 37.5302 128.835 37.4502ZM149.567 26.1222C149.567 26.4262 149.455 26.6902 149.231 26.9142C149.023 27.1222 148.775 27.2262 148.487 27.2262H142.295C142.103 27.2262 142.007 27.3302 142.007 27.5382V30.7302C142.007 30.9542 142.103 31.0662 142.295 31.0662H147.623C147.943 31.0662 148.207 31.1702 148.415 31.3782C148.623 31.5862 148.727 31.8422 148.727 32.1462V32.8182C148.727 33.1222 148.623 33.3862 148.415 33.6102C148.207 33.8182 147.943 33.9222 147.623 33.9222H142.295C142.103 33.9222 142.007 34.0182 142.007 34.2102V39.4902C142.007 39.7942 141.895 40.0582 141.671 40.2822C141.463 40.4902 141.207 40.5942 140.903 40.5942H140.231C139.943 40.5942 139.687 40.4902 139.463 40.2822C139.255 40.0582 139.151 39.7942 139.151 39.4902V25.4742C139.151 25.1542 139.255 24.8902 139.463 24.6822C139.687 24.4742 139.943 24.3702 140.231 24.3702H148.487C148.775 24.3702 149.023 24.4742 149.231 24.6822C149.455 24.8902 149.567 25.1542 149.567 25.4742V26.1222ZM155.847 39.4902C155.847 39.7942 155.735 40.0582 155.511 40.2822C155.303 40.4902 155.047 40.5942 154.743 40.5942H154.143C153.407 40.5942 152.775 40.3382 152.247 39.8262C151.719 39.2982 151.455 38.6582 151.455 37.9062V25.4742C151.455 25.1542 151.559 24.8902 151.767 24.6822C151.991 24.4742 152.255 24.3702 152.559 24.3702H153.231C153.535 24.3702 153.791 24.4742 153.999 24.6822C154.223 24.8902 154.335 25.1542 154.335 25.4742V37.4502C154.335 37.6582 154.431 37.7622 154.623 37.7622H154.743C155.047 37.7622 155.303 37.8662 155.511 38.0742C155.735 38.2822 155.847 38.5462 155.847 38.8662V39.4902ZM161.361 25.9062C161.361 26.4022 161.177 26.8342 160.809 27.2022C160.457 27.5542 160.041 27.7302 159.561 27.7302C159.065 27.7302 158.633 27.5542 158.265 27.2022C157.913 26.8342 157.737 26.4022 157.737 25.9062C157.737 25.4262 157.913 25.0102 158.265 24.6582C158.633 24.2902 159.065 24.1062 159.561 24.1062C160.041 24.1062 160.457 24.2902 160.809 24.6582C161.177 25.0102 161.361 25.4262 161.361 25.9062ZM160.977 39.4902C160.977 39.7942 160.865 40.0582 160.641 40.2822C160.433 40.4902 160.177 40.5942 159.873 40.5942H159.225C158.921 40.5942 158.657 40.4902 158.433 40.2822C158.225 40.0582 158.121 39.7942 158.121 39.4902V29.5302C158.121 29.2262 158.225 28.9702 158.433 28.7622C158.657 28.5382 158.921 28.4262 159.225 28.4262H159.873C160.177 28.4262 160.433 28.5382 160.641 28.7622C160.865 28.9702 160.977 29.2262 160.977 29.5302V39.4902ZM171.236 29.7702L169.076 34.1382C168.964 34.3142 168.964 34.4982 169.076 34.6902L171.212 39.0102C171.404 39.3782 171.388 39.7302 171.164 40.0662C170.956 40.4182 170.652 40.5942 170.252 40.5942H169.508C169.06 40.5942 168.732 40.3942 168.524 39.9942L167.468 37.8582C167.452 37.8102 167.404 37.7862 167.324 37.7862C167.26 37.7862 167.212 37.8102 167.18 37.8582L166.148 39.9942C165.94 40.3942 165.604 40.5942 165.14 40.5942H164.396C163.996 40.5942 163.692 40.4182 163.484 40.0662C163.276 39.7302 163.26 39.3782 163.436 39.0102L165.596 34.6902C165.676 34.4982 165.676 34.3062 165.596 34.1142L163.412 29.7702C163.236 29.4022 163.252 29.0422 163.46 28.6902C163.684 28.3382 163.996 28.1622 164.396 28.1622H165.14C165.364 28.1622 165.556 28.2262 165.716 28.3542C165.892 28.4662 166.028 28.6102 166.124 28.7862L167.18 30.9462C167.212 30.9942 167.26 31.0182 167.324 31.0182C167.404 31.0182 167.452 30.9942 167.468 30.9462L168.548 28.7862C168.644 28.6102 168.772 28.4662 168.932 28.3542C169.108 28.2262 169.3 28.1622 169.508 28.1622H170.252C170.636 28.1622 170.948 28.3382 171.188 28.6902C171.396 29.0422 171.412 29.4022 171.236 29.7702Z" fill="#3CB6FF"/>
<circle cx="37.4476" cy="31.6268" r="9.70149" fill="#3CB6FF"/>
<path d="M198.298 41.3283C197.024 41.3283 195.762 41.0773 194.585 40.5898C193.408 40.1022 192.339 39.3876 191.438 38.4868C190.537 37.5859 189.823 36.5164 189.335 35.3394C188.847 34.1623 188.597 32.9008 188.597 31.6268C188.597 30.3528 188.847 29.0912 189.335 27.9142C189.823 26.7371 190.537 25.6677 191.438 24.7668C192.339 23.8659 193.408 23.1513 194.585 22.6638C195.762 22.1762 197.024 21.9253 198.298 21.9253L198.298 31.6268L198.298 41.3283Z" fill="#3CB6FF"/>
</svg>
