<svg width="88" height="90" viewBox="0 0 88 90" fill="none" xmlns="http://www.w3.org/2000/svg">
<rect width="52.931" height="89.1325" rx="8" fill="#3CB6FF"/>
<path d="M56.7201 78.7714C52.0125 79.2992 47.2466 78.8455 42.7231 77.4392C38.1996 76.0328 34.0166 73.7042 30.4381 70.6002C26.8596 67.4963 23.9632 63.6844 21.9317 59.4051C19.9002 55.1257 18.7776 50.4717 18.6347 45.7368C18.4919 41.0019 19.3319 36.2887 21.1018 31.8947C22.8717 27.5006 25.533 23.5211 28.9179 20.2071C32.3028 16.8931 36.3378 14.3166 40.7683 12.6401C45.1988 10.9636 49.9287 10.2235 54.6596 10.4665L52.9009 44.7031L56.7201 78.7714Z" fill="#020916"/>
<circle cx="52.9309" cy="44.7034" r="13.2127" fill="#3CB6FF" stroke="#3CB6FF"/>
</svg>
