<svg width="88" height="90" viewBox="0 0 88 90" fill="none" xmlns="http://www.w3.org/2000/svg">
<rect x="0.5" y="0.5" width="51.931" height="88.1325" rx="7.5" fill="#020916" stroke="#4B465C"/>
<mask id="path-2-inside-1_1133_6852" fill="white">
<path d="M52.9009 78.9849C43.8088 78.9849 35.0891 75.3731 28.66 68.9441C22.231 62.515 18.6191 53.7953 18.6191 44.7032C18.6191 35.6112 22.231 26.8915 28.66 20.4624C35.0891 14.0333 43.8088 10.4215 52.9009 10.4215V44.7032V78.9849Z"/>
</mask>
<path d="M52.9009 78.9849C43.8088 78.9849 35.0891 75.3731 28.66 68.9441C22.231 62.515 18.6191 53.7953 18.6191 44.7032C18.6191 35.6112 22.231 26.8915 28.66 20.4624C35.0891 14.0333 43.8088 10.4215 52.9009 10.4215V44.7032V78.9849Z" fill="#020916" stroke="#4B465C" stroke-width="2" mask="url(#path-2-inside-1_1133_6852)"/>
<circle cx="52.9309" cy="44.7034" r="13.2127" fill="#020916" stroke="#4B465C"/>
</svg>
